<?xml version="1.0" encoding="utf-8" standalone="no"?>
<!DOCTYPE svg PUBLIC "-//W3C//DTD SVG 1.1//EN"
  "http://www.w3.org/Graphics/SVG/1.1/DTD/svg11.dtd">
<svg xmlns:xlink="http://www.w3.org/1999/xlink" width="509.76pt" height="198.72pt" viewBox="0 0 509.76 198.72" xmlns="http://www.w3.org/2000/svg" version="1.1">
 <title>figure3b_gap</title>
 <metadata>
  <rdf:RDF xmlns:dc="http://purl.org/dc/elements/1.1/" xmlns:cc="http://creativecommons.org/ns#" xmlns:rdf="http://www.w3.org/1999/02/22-rdf-syntax-ns#">
   <cc:Work>
    <dc:type rdf:resource="http://purl.org/dc/dcmitype/StillImage"/>
    <dc:title>figure3b_gap</dc:title>
    <dc:date>2026-09-08</dc:date>
    <dc:format>image/svg+xml</dc:format>
    <dc:creator>
     <cc:Agent>
      <dc:title>Python / Matplotlib</dc:title>
     </cc:Agent>
    </dc:creator>
   </cc:Work>
  </rdf:RDF>
 </metadata>
 <defs>
  <style type="text/css">*{stroke-linejoin: round; stroke-linecap: butt}</style>
 </defs>
 <g id="figure_1">
  <g id="patch_1">
   <path d="M 0 198.72 
L 509.76 198.72 
L 509.76 0 
L 0 0 
z
" style="fill: #ffffff"/>
  </g>
  <g id="axes_1">
   <g id="patch_2">
    <path d="M 57.09312 153.0144 
L 499.5648 153.0144 
L 499.5648 14.50656 
L 57.09312 14.50656 
z
" style="fill: #ffffff"/>
   </g>
   <g id="matplotlib.axis_1">
    <g id="xtick_1">
     <g id="line2d_1">
      <defs>
       <path id="m3fd32256ad" d="M 0 0 
L 0 3.2 
" style="stroke: #25313b; stroke-width: 0.65"/>
      </defs>
      <g>
       <use xlink:href="#m3fd32256ad" x="57.09312" y="153.0144" style="fill: #25313b; stroke: #25313b; stroke-width: 0.65"/>
      </g>
     </g>
     <g id="text_1">
      <!-- 0 -->
      <g style="fill: #25313b" transform="translate(54.16637 166.204962) scale(0.092 -0.092)">
       <defs>
        <path id="DejaVuSans-30" d="M 2034 4250 
Q 1547 4250 1301 3770 
Q 1056 3291 1056 2328 
Q 1056 1369 1301 889 
Q 1547 409 2034 409 
Q 2525 409 2770 889 
Q 3016 1369 3016 2328 
Q 3016 3291 2770 3770 
Q 2525 4250 2034 4250 
z
M 2034 4750 
Q 2819 4750 3233 4129 
Q 3647 3509 3647 2328 
Q 3647 1150 3233 529 
Q 2819 -91 2034 -91 
Q 1250 -91 836 529 
Q 422 1150 422 2328 
Q 422 3509 836 4129 
Q 1250 4750 2034 4750 
z
" transform="scale(0.015625)"/>
       </defs>
       <use xlink:href="#DejaVuSans-30"/>
      </g>
     </g>
    </g>
    <g id="xtick_2">
     <g id="line2d_2">
      <g>
       <use xlink:href="#m3fd32256ad" x="145.587456" y="153.0144" style="fill: #25313b; stroke: #25313b; stroke-width: 0.65"/>
      </g>
     </g>
     <g id="text_2">
      <!-- 0.05 -->
      <g style="fill: #25313b" transform="translate(135.345269 166.204962) scale(0.092 -0.092)">
       <defs>
        <path id="DejaVuSans-2e" d="M 684 794 
L 1344 794 
L 1344 0 
L 684 0 
L 684 794 
z
" transform="scale(0.015625)"/>
        <path id="DejaVuSans-35" d="M 691 4666 
L 3169 4666 
L 3169 4134 
L 1269 4134 
L 1269 2991 
Q 1406 3038 1543 3061 
Q 1681 3084 1819 3084 
Q 2600 3084 3056 2656 
Q 3513 2228 3513 1497 
Q 3513 744 3044 326 
Q 2575 -91 1722 -91 
Q 1428 -91 1123 -41 
Q 819 9 494 109 
L 494 744 
Q 775 591 1075 516 
Q 1375 441 1709 441 
Q 2250 441 2565 725 
Q 2881 1009 2881 1497 
Q 2881 1984 2565 2268 
Q 2250 2553 1709 2553 
Q 1456 2553 1204 2497 
Q 953 2441 691 2322 
L 691 4666 
z
" transform="scale(0.015625)"/>
       </defs>
       <use xlink:href="#DejaVuSans-30"/>
       <use xlink:href="#DejaVuSans-2e" transform="translate(63.623047 0)"/>
       <use xlink:href="#DejaVuSans-30" transform="translate(95.410156 0)"/>
       <use xlink:href="#DejaVuSans-35" transform="translate(159.033203 0)"/>
      </g>
     </g>
    </g>
    <g id="xtick_3">
     <g id="line2d_3">
      <g>
       <use xlink:href="#m3fd32256ad" x="234.081792" y="153.0144" style="fill: #25313b; stroke: #25313b; stroke-width: 0.65"/>
      </g>
     </g>
     <g id="text_3">
      <!-- 0.10 -->
      <g style="fill: #25313b" transform="translate(223.839605 166.204962) scale(0.092 -0.092)">
       <defs>
        <path id="DejaVuSans-31" d="M 794 531 
L 1825 531 
L 1825 4091 
L 703 3866 
L 703 4441 
L 1819 4666 
L 2450 4666 
L 2450 531 
L 3481 531 
L 3481 0 
L 794 0 
L 794 531 
z
" transform="scale(0.015625)"/>
       </defs>
       <use xlink:href="#DejaVuSans-30"/>
       <use xlink:href="#DejaVuSans-2e" transform="translate(63.623047 0)"/>
       <use xlink:href="#DejaVuSans-31" transform="translate(95.410156 0)"/>
       <use xlink:href="#DejaVuSans-30" transform="translate(159.033203 0)"/>
      </g>
     </g>
    </g>
    <g id="xtick_4">
     <g id="line2d_4">
      <g>
       <use xlink:href="#m3fd32256ad" x="322.576128" y="153.0144" style="fill: #25313b; stroke: #25313b; stroke-width: 0.65"/>
      </g>
     </g>
     <g id="text_4">
      <!-- 0.15 -->
      <g style="fill: #25313b" transform="translate(312.33394 166.204962) scale(0.092 -0.092)">
       <use xlink:href="#DejaVuSans-30"/>
       <use xlink:href="#DejaVuSans-2e" transform="translate(63.623047 0)"/>
       <use xlink:href="#DejaVuSans-31" transform="translate(95.410156 0)"/>
       <use xlink:href="#DejaVuSans-35" transform="translate(159.033203 0)"/>
      </g>
     </g>
    </g>
    <g id="xtick_5">
     <g id="line2d_5">
      <g>
       <use xlink:href="#m3fd32256ad" x="411.070464" y="153.0144" style="fill: #25313b; stroke: #25313b; stroke-width: 0.65"/>
      </g>
     </g>
     <g id="text_5">
      <!-- 0.20 -->
      <g style="fill: #25313b" transform="translate(400.828277 166.204962) scale(0.092 -0.092)">
       <defs>
        <path id="DejaVuSans-32" d="M 1228 531 
L 3431 531 
L 3431 0 
L 469 0 
L 469 531 
Q 828 903 1448 1529 
Q 2069 2156 2228 2338 
Q 2531 2678 2651 2914 
Q 2772 3150 2772 3378 
Q 2772 3750 2511 3984 
Q 2250 4219 1831 4219 
Q 1534 4219 1204 4116 
Q 875 4013 500 3803 
L 500 4441 
Q 881 4594 1212 4672 
Q 1544 4750 1819 4750 
Q 2544 4750 2975 4387 
Q 3406 4025 3406 3419 
Q 3406 3131 3298 2873 
Q 3191 2616 2906 2266 
Q 2828 2175 2409 1742 
Q 1991 1309 1228 531 
z
" transform="scale(0.015625)"/>
       </defs>
       <use xlink:href="#DejaVuSans-30"/>
       <use xlink:href="#DejaVuSans-2e" transform="translate(63.623047 0)"/>
       <use xlink:href="#DejaVuSans-32" transform="translate(95.410156 0)"/>
       <use xlink:href="#DejaVuSans-30" transform="translate(159.033203 0)"/>
      </g>
     </g>
    </g>
    <g id="xtick_6">
     <g id="line2d_6">
      <g>
       <use xlink:href="#m3fd32256ad" x="499.5648" y="153.0144" style="fill: #25313b; stroke: #25313b; stroke-width: 0.65"/>
      </g>
     </g>
     <g id="text_6">
      <!-- 0.25 -->
      <g style="fill: #25313b" transform="translate(489.322612 166.204962) scale(0.092 -0.092)">
       <use xlink:href="#DejaVuSans-30"/>
       <use xlink:href="#DejaVuSans-2e" transform="translate(63.623047 0)"/>
       <use xlink:href="#DejaVuSans-32" transform="translate(95.410156 0)"/>
       <use xlink:href="#DejaVuSans-35" transform="translate(159.033203 0)"/>
      </g>
     </g>
    </g>
    <g id="text_7">
     <!-- Weakest directional coverage $\lambda=\lambda_{\min}(T)$ -->
     <g style="fill: #25313b" transform="translate(176.47896 181.718275) scale(0.1 -0.1)">
      <defs>
       <path id="DejaVuSans-57" d="M 213 4666 
L 850 4666 
L 1831 722 
L 2809 4666 
L 3519 4666 
L 4500 722 
L 5478 4666 
L 6119 4666 
L 4947 0 
L 4153 0 
L 3169 4050 
L 2175 0 
L 1381 0 
L 213 4666 
z
" transform="scale(0.015625)"/>
       <path id="DejaVuSans-65" d="M 3597 1894 
L 3597 1613 
L 953 1613 
Q 991 1019 1311 708 
Q 1631 397 2203 397 
Q 2534 397 2845 478 
Q 3156 559 3463 722 
L 3463 178 
Q 3153 47 2828 -22 
Q 2503 -91 2169 -91 
Q 1331 -91 842 396 
Q 353 884 353 1716 
Q 353 2575 817 3079 
Q 1281 3584 2069 3584 
Q 2775 3584 3186 3129 
Q 3597 2675 3597 1894 
z
M 3022 2063 
Q 3016 2534 2758 2815 
Q 2500 3097 2075 3097 
Q 1594 3097 1305 2825 
Q 1016 2553 972 2059 
L 3022 2063 
z
" transform="scale(0.015625)"/>
       <path id="DejaVuSans-61" d="M 2194 1759 
Q 1497 1759 1228 1600 
Q 959 1441 959 1056 
Q 959 750 1161 570 
Q 1363 391 1709 391 
Q 2188 391 2477 730 
Q 2766 1069 2766 1631 
L 2766 1759 
L 2194 1759 
z
M 3341 1997 
L 3341 0 
L 2766 0 
L 2766 531 
Q 2569 213 2275 61 
Q 1981 -91 1556 -91 
Q 1019 -91 701 211 
Q 384 513 384 1019 
Q 384 1609 779 1909 
Q 1175 2209 1959 2209 
L 2766 2209 
L 2766 2266 
Q 2766 2663 2505 2880 
Q 2244 3097 1772 3097 
Q 1472 3097 1187 3025 
Q 903 2953 641 2809 
L 641 3341 
Q 956 3463 1253 3523 
Q 1550 3584 1831 3584 
Q 2591 3584 2966 3190 
Q 3341 2797 3341 1997 
z
" transform="scale(0.015625)"/>
       <path id="DejaVuSans-6b" d="M 581 4863 
L 1159 4863 
L 1159 1991 
L 2875 3500 
L 3609 3500 
L 1753 1863 
L 3688 0 
L 2938 0 
L 1159 1709 
L 1159 0 
L 581 0 
L 581 4863 
z
" transform="scale(0.015625)"/>
       <path id="DejaVuSans-73" d="M 2834 3397 
L 2834 2853 
Q 2591 2978 2328 3040 
Q 2066 3103 1784 3103 
Q 1356 3103 1142 2972 
Q 928 2841 928 2578 
Q 928 2378 1081 2264 
Q 1234 2150 1697 2047 
L 1894 2003 
Q 2506 1872 2764 1633 
Q 3022 1394 3022 966 
Q 3022 478 2636 193 
Q 2250 -91 1575 -91 
Q 1294 -91 989 -36 
Q 684 19 347 128 
L 347 722 
Q 666 556 975 473 
Q 1284 391 1588 391 
Q 1994 391 2212 530 
Q 2431 669 2431 922 
Q 2431 1156 2273 1281 
Q 2116 1406 1581 1522 
L 1381 1569 
Q 847 1681 609 1914 
Q 372 2147 372 2553 
Q 372 3047 722 3315 
Q 1072 3584 1716 3584 
Q 2034 3584 2315 3537 
Q 2597 3491 2834 3397 
z
" transform="scale(0.015625)"/>
       <path id="DejaVuSans-74" d="M 1172 4494 
L 1172 3500 
L 2356 3500 
L 2356 3053 
L 1172 3053 
L 1172 1153 
Q 1172 725 1289 603 
Q 1406 481 1766 481 
L 2356 481 
L 2356 0 
L 1766 0 
Q 1100 0 847 248 
Q 594 497 594 1153 
L 594 3053 
L 172 3053 
L 172 3500 
L 594 3500 
L 594 4494 
L 1172 4494 
z
" transform="scale(0.015625)"/>
       <path id="DejaVuSans-20" transform="scale(0.015625)"/>
       <path id="DejaVuSans-64" d="M 2906 2969 
L 2906 4863 
L 3481 4863 
L 3481 0 
L 2906 0 
L 2906 525 
Q 2725 213 2448 61 
Q 2172 -91 1784 -91 
Q 1150 -91 751 415 
Q 353 922 353 1747 
Q 353 2572 751 3078 
Q 1150 3584 1784 3584 
Q 2172 3584 2448 3432 
Q 2725 3281 2906 2969 
z
M 947 1747 
Q 947 1113 1208 752 
Q 1469 391 1925 391 
Q 2381 391 2643 752 
Q 2906 1113 2906 1747 
Q 2906 2381 2643 2742 
Q 2381 3103 1925 3103 
Q 1469 3103 1208 2742 
Q 947 2381 947 1747 
z
" transform="scale(0.015625)"/>
       <path id="DejaVuSans-69" d="M 603 3500 
L 1178 3500 
L 1178 0 
L 603 0 
L 603 3500 
z
M 603 4863 
L 1178 4863 
L 1178 4134 
L 603 4134 
L 603 4863 
z
" transform="scale(0.015625)"/>
       <path id="DejaVuSans-72" d="M 2631 2963 
Q 2534 3019 2420 3045 
Q 2306 3072 2169 3072 
Q 1681 3072 1420 2755 
Q 1159 2438 1159 1844 
L 1159 0 
L 581 0 
L 581 3500 
L 1159 3500 
L 1159 2956 
Q 1341 3275 1631 3429 
Q 1922 3584 2338 3584 
Q 2397 3584 2469 3576 
Q 2541 3569 2628 3553 
L 2631 2963 
z
" transform="scale(0.015625)"/>
       <path id="DejaVuSans-63" d="M 3122 3366 
L 3122 2828 
Q 2878 2963 2633 3030 
Q 2388 3097 2138 3097 
Q 1578 3097 1268 2742 
Q 959 2388 959 1747 
Q 959 1106 1268 751 
Q 1578 397 2138 397 
Q 2388 397 2633 464 
Q 2878 531 3122 666 
L 3122 134 
Q 2881 22 2623 -34 
Q 2366 -91 2075 -91 
Q 1284 -91 818 406 
Q 353 903 353 1747 
Q 353 2603 823 3093 
Q 1294 3584 2113 3584 
Q 2378 3584 2631 3529 
Q 2884 3475 3122 3366 
z
" transform="scale(0.015625)"/>
       <path id="DejaVuSans-6f" d="M 1959 3097 
Q 1497 3097 1228 2736 
Q 959 2375 959 1747 
Q 959 1119 1226 758 
Q 1494 397 1959 397 
Q 2419 397 2687 759 
Q 2956 1122 2956 1747 
Q 2956 2369 2687 2733 
Q 2419 3097 1959 3097 
z
M 1959 3584 
Q 2709 3584 3137 3096 
Q 3566 2609 3566 1747 
Q 3566 888 3137 398 
Q 2709 -91 1959 -91 
Q 1206 -91 779 398 
Q 353 888 353 1747 
Q 353 2609 779 3096 
Q 1206 3584 1959 3584 
z
" transform="scale(0.015625)"/>
       <path id="DejaVuSans-6e" d="M 3513 2113 
L 3513 0 
L 2938 0 
L 2938 2094 
Q 2938 2591 2744 2837 
Q 2550 3084 2163 3084 
Q 1697 3084 1428 2787 
Q 1159 2491 1159 1978 
L 1159 0 
L 581 0 
L 581 3500 
L 1159 3500 
L 1159 2956 
Q 1366 3272 1645 3428 
Q 1925 3584 2291 3584 
Q 2894 3584 3203 3211 
Q 3513 2838 3513 2113 
z
" transform="scale(0.015625)"/>
       <path id="DejaVuSans-6c" d="M 603 4863 
L 1178 4863 
L 1178 0 
L 603 0 
L 603 4863 
z
" transform="scale(0.015625)"/>
       <path id="DejaVuSans-76" d="M 191 3500 
L 800 3500 
L 1894 563 
L 2988 3500 
L 3597 3500 
L 2284 0 
L 1503 0 
L 191 3500 
z
" transform="scale(0.015625)"/>
       <path id="DejaVuSans-67" d="M 2906 1791 
Q 2906 2416 2648 2759 
Q 2391 3103 1925 3103 
Q 1463 3103 1205 2759 
Q 947 2416 947 1791 
Q 947 1169 1205 825 
Q 1463 481 1925 481 
Q 2391 481 2648 825 
Q 2906 1169 2906 1791 
z
M 3481 434 
Q 3481 -459 3084 -895 
Q 2688 -1331 1869 -1331 
Q 1566 -1331 1297 -1286 
Q 1028 -1241 775 -1147 
L 775 -588 
Q 1028 -725 1275 -790 
Q 1522 -856 1778 -856 
Q 2344 -856 2625 -561 
Q 2906 -266 2906 331 
L 2906 616 
Q 2728 306 2450 153 
Q 2172 0 1784 0 
Q 1141 0 747 490 
Q 353 981 353 1791 
Q 353 2603 747 3093 
Q 1141 3584 1784 3584 
Q 2172 3584 2450 3431 
Q 2728 3278 2906 2969 
L 2906 3500 
L 3481 3500 
L 3481 434 
z
" transform="scale(0.015625)"/>
       <path id="DejaVuSans-Oblique-3bb" d="M 2350 4316 
L 3125 0 
L 2516 0 
L 2038 2588 
L 328 0 
L -281 0 
L 1903 3356 
L 1794 3975 
Q 1725 4369 1391 4369 
L 1091 4369 
L 1184 4863 
L 1550 4856 
Q 2253 4847 2350 4316 
z
" transform="scale(0.015625)"/>
       <path id="DejaVuSans-3d" d="M 678 2906 
L 4684 2906 
L 4684 2381 
L 678 2381 
L 678 2906 
z
M 678 1631 
L 4684 1631 
L 4684 1100 
L 678 1100 
L 678 1631 
z
" transform="scale(0.015625)"/>
       <path id="DejaVuSans-6d" d="M 3328 2828 
Q 3544 3216 3844 3400 
Q 4144 3584 4550 3584 
Q 5097 3584 5394 3201 
Q 5691 2819 5691 2113 
L 5691 0 
L 5113 0 
L 5113 2094 
Q 5113 2597 4934 2840 
Q 4756 3084 4391 3084 
Q 3944 3084 3684 2787 
Q 3425 2491 3425 1978 
L 3425 0 
L 2847 0 
L 2847 2094 
Q 2847 2600 2669 2842 
Q 2491 3084 2119 3084 
Q 1678 3084 1418 2786 
Q 1159 2488 1159 1978 
L 1159 0 
L 581 0 
L 581 3500 
L 1159 3500 
L 1159 2956 
Q 1356 3278 1631 3431 
Q 1906 3584 2284 3584 
Q 2666 3584 2933 3390 
Q 3200 3197 3328 2828 
z
" transform="scale(0.015625)"/>
       <path id="DejaVuSans-28" d="M 1984 4856 
Q 1566 4138 1362 3434 
Q 1159 2731 1159 2009 
Q 1159 1288 1364 580 
Q 1569 -128 1984 -844 
L 1484 -844 
Q 1016 -109 783 600 
Q 550 1309 550 2009 
Q 550 2706 781 3412 
Q 1013 4119 1484 4856 
L 1984 4856 
z
" transform="scale(0.015625)"/>
       <path id="DejaVuSans-Oblique-54" d="M 378 4666 
L 4325 4666 
L 4225 4134 
L 2559 4134 
L 1759 0 
L 1125 0 
L 1925 4134 
L 275 4134 
L 378 4666 
z
" transform="scale(0.015625)"/>
       <path id="DejaVuSans-29" d="M 513 4856 
L 1013 4856 
Q 1481 4119 1714 3412 
Q 1947 2706 1947 2009 
Q 1947 1309 1714 600 
Q 1481 -109 1013 -844 
L 513 -844 
Q 928 -128 1133 580 
Q 1338 1288 1338 2009 
Q 1338 2731 1133 3434 
Q 928 4138 513 4856 
z
" transform="scale(0.015625)"/>
      </defs>
      <use xlink:href="#DejaVuSans-57" transform="translate(0 0.015625)"/>
      <use xlink:href="#DejaVuSans-65" transform="translate(98.876953 0.015625)"/>
      <use xlink:href="#DejaVuSans-61" transform="translate(160.400391 0.015625)"/>
      <use xlink:href="#DejaVuSans-6b" transform="translate(221.679688 0.015625)"/>
      <use xlink:href="#DejaVuSans-65" transform="translate(279.589844 0.015625)"/>
      <use xlink:href="#DejaVuSans-73" transform="translate(341.113281 0.015625)"/>
      <use xlink:href="#DejaVuSans-74" transform="translate(393.212891 0.015625)"/>
      <use xlink:href="#DejaVuSans-20" transform="translate(432.421875 0.015625)"/>
      <use xlink:href="#DejaVuSans-64" transform="translate(464.208984 0.015625)"/>
      <use xlink:href="#DejaVuSans-69" transform="translate(527.685547 0.015625)"/>
      <use xlink:href="#DejaVuSans-72" transform="translate(555.46875 0.015625)"/>
      <use xlink:href="#DejaVuSans-65" transform="translate(596.582031 0.015625)"/>
      <use xlink:href="#DejaVuSans-63" transform="translate(658.105469 0.015625)"/>
      <use xlink:href="#DejaVuSans-74" transform="translate(713.085938 0.015625)"/>
      <use xlink:href="#DejaVuSans-69" transform="translate(752.294922 0.015625)"/>
      <use xlink:href="#DejaVuSans-6f" transform="translate(780.078125 0.015625)"/>
      <use xlink:href="#DejaVuSans-6e" transform="translate(841.259766 0.015625)"/>
      <use xlink:href="#DejaVuSans-61" transform="translate(904.638672 0.015625)"/>
      <use xlink:href="#DejaVuSans-6c" transform="translate(965.917969 0.015625)"/>
      <use xlink:href="#DejaVuSans-20" transform="translate(993.701172 0.015625)"/>
      <use xlink:href="#DejaVuSans-63" transform="translate(1025.488281 0.015625)"/>
      <use xlink:href="#DejaVuSans-6f" transform="translate(1080.46875 0.015625)"/>
      <use xlink:href="#DejaVuSans-76" transform="translate(1141.650391 0.015625)"/>
      <use xlink:href="#DejaVuSans-65" transform="translate(1200.830078 0.015625)"/>
      <use xlink:href="#DejaVuSans-72" transform="translate(1262.353516 0.015625)"/>
      <use xlink:href="#DejaVuSans-61" transform="translate(1303.466797 0.015625)"/>
      <use xlink:href="#DejaVuSans-67" transform="translate(1364.746094 0.015625)"/>
      <use xlink:href="#DejaVuSans-65" transform="translate(1428.222656 0.015625)"/>
      <use xlink:href="#DejaVuSans-20" transform="translate(1489.746094 0.015625)"/>
      <use xlink:href="#DejaVuSans-Oblique-3bb" transform="translate(1521.533203 0.015625)"/>
      <use xlink:href="#DejaVuSans-3d" transform="translate(1600.195312 0.015625)"/>
      <use xlink:href="#DejaVuSans-Oblique-3bb" transform="translate(1703.466797 0.015625)"/>
      <use xlink:href="#DejaVuSans-6d" transform="translate(1762.646484 -16.390625) scale(0.7)"/>
      <use xlink:href="#DejaVuSans-69" transform="translate(1830.834961 -16.390625) scale(0.7)"/>
      <use xlink:href="#DejaVuSans-6e" transform="translate(1850.283203 -16.390625) scale(0.7)"/>
      <use xlink:href="#DejaVuSans-28" transform="translate(1897.382812 0.015625)"/>
      <use xlink:href="#DejaVuSans-Oblique-54" transform="translate(1936.396484 0.015625)"/>
      <use xlink:href="#DejaVuSans-29" transform="translate(1997.480469 0.015625)"/>
     </g>
    </g>
   </g>
   <g id="matplotlib.axis_2">
    <g id="ytick_1">
     <g id="line2d_7">
      <path d="M 57.09312 153.0144 
L 499.5648 153.0144 
" clip-path="url(#ped76e206cb)" style="fill: none; stroke: #d5dee4; stroke-opacity: 0.65; stroke-width: 0.45; stroke-linecap: square"/>
     </g>
     <g id="line2d_8">
      <defs>
       <path id="mf65d44c51c" d="M 0 0 
L -3.2 0 
" style="stroke: #25313b; stroke-width: 0.65"/>
      </defs>
      <g>
       <use xlink:href="#mf65d44c51c" x="57.09312" y="153.0144" style="fill: #25313b; stroke: #25313b; stroke-width: 0.65"/>
      </g>
     </g>
     <g id="text_8">
      <!-- 0 -->
      <g style="fill: #25313b" transform="translate(45.03962 156.509681) scale(0.092 -0.092)">
       <use xlink:href="#DejaVuSans-30"/>
      </g>
     </g>
    </g>
    <g id="ytick_2">
     <g id="line2d_9">
      <path d="M 57.09312 118.38744 
L 499.5648 118.38744 
" clip-path="url(#ped76e206cb)" style="fill: none; stroke: #d5dee4; stroke-opacity: 0.65; stroke-width: 0.45; stroke-linecap: square"/>
     </g>
     <g id="line2d_10">
      <g>
       <use xlink:href="#mf65d44c51c" x="57.09312" y="118.38744" style="fill: #25313b; stroke: #25313b; stroke-width: 0.65"/>
      </g>
     </g>
     <g id="text_9">
      <!-- 0.005 -->
      <g style="fill: #25313b" transform="translate(24.555245 121.882721) scale(0.092 -0.092)">
       <use xlink:href="#DejaVuSans-30"/>
       <use xlink:href="#DejaVuSans-2e" transform="translate(63.623047 0)"/>
       <use xlink:href="#DejaVuSans-30" transform="translate(95.410156 0)"/>
       <use xlink:href="#DejaVuSans-30" transform="translate(159.033203 0)"/>
       <use xlink:href="#DejaVuSans-35" transform="translate(222.65625 0)"/>
      </g>
     </g>
    </g>
    <g id="ytick_3">
     <g id="line2d_11">
      <path d="M 57.09312 83.76048 
L 499.5648 83.76048 
" clip-path="url(#ped76e206cb)" style="fill: none; stroke: #d5dee4; stroke-opacity: 0.65; stroke-width: 0.45; stroke-linecap: square"/>
     </g>
     <g id="line2d_12">
      <g>
       <use xlink:href="#mf65d44c51c" x="57.09312" y="83.76048" style="fill: #25313b; stroke: #25313b; stroke-width: 0.65"/>
      </g>
     </g>
     <g id="text_10">
      <!-- 0.010 -->
      <g style="fill: #25313b" transform="translate(24.555245 87.255761) scale(0.092 -0.092)">
       <use xlink:href="#DejaVuSans-30"/>
       <use xlink:href="#DejaVuSans-2e" transform="translate(63.623047 0)"/>
       <use xlink:href="#DejaVuSans-30" transform="translate(95.410156 0)"/>
       <use xlink:href="#DejaVuSans-31" transform="translate(159.033203 0)"/>
       <use xlink:href="#DejaVuSans-30" transform="translate(222.65625 0)"/>
      </g>
     </g>
    </g>
    <g id="ytick_4">
     <g id="line2d_13">
      <path d="M 57.09312 49.13352 
L 499.5648 49.13352 
" clip-path="url(#ped76e206cb)" style="fill: none; stroke: #d5dee4; stroke-opacity: 0.65; stroke-width: 0.45; stroke-linecap: square"/>
     </g>
     <g id="line2d_14">
      <g>
       <use xlink:href="#mf65d44c51c" x="57.09312" y="49.13352" style="fill: #25313b; stroke: #25313b; stroke-width: 0.65"/>
      </g>
     </g>
     <g id="text_11">
      <!-- 0.015 -->
      <g style="fill: #25313b" transform="translate(24.555245 52.628801) scale(0.092 -0.092)">
       <use xlink:href="#DejaVuSans-30"/>
       <use xlink:href="#DejaVuSans-2e" transform="translate(63.623047 0)"/>
       <use xlink:href="#DejaVuSans-30" transform="translate(95.410156 0)"/>
       <use xlink:href="#DejaVuSans-31" transform="translate(159.033203 0)"/>
       <use xlink:href="#DejaVuSans-35" transform="translate(222.65625 0)"/>
      </g>
     </g>
    </g>
    <g id="ytick_5">
     <g id="line2d_15">
      <path d="M 57.09312 14.50656 
L 499.5648 14.50656 
" clip-path="url(#ped76e206cb)" style="fill: none; stroke: #d5dee4; stroke-opacity: 0.65; stroke-width: 0.45; stroke-linecap: square"/>
     </g>
     <g id="line2d_16">
      <g>
       <use xlink:href="#mf65d44c51c" x="57.09312" y="14.50656" style="fill: #25313b; stroke: #25313b; stroke-width: 0.65"/>
      </g>
     </g>
     <g id="text_12">
      <!-- 0.020 -->
      <g style="fill: #25313b" transform="translate(24.555245 18.001841) scale(0.092 -0.092)">
       <use xlink:href="#DejaVuSans-30"/>
       <use xlink:href="#DejaVuSans-2e" transform="translate(63.623047 0)"/>
       <use xlink:href="#DejaVuSans-30" transform="translate(95.410156 0)"/>
       <use xlink:href="#DejaVuSans-32" transform="translate(159.033203 0)"/>
       <use xlink:href="#DejaVuSans-30" transform="translate(222.65625 0)"/>
      </g>
     </g>
    </g>
    <g id="text_13">
     <!-- Threshold gap $p_{\mathrm{rep}}-p_1$ -->
     <g style="fill: #25313b" transform="translate(14.455245 141.91048) rotate(-90) scale(0.1 -0.1)">
      <defs>
       <path id="DejaVuSans-54" d="M -19 4666 
L 3928 4666 
L 3928 4134 
L 2272 4134 
L 2272 0 
L 1638 0 
L 1638 4134 
L -19 4134 
L -19 4666 
z
" transform="scale(0.015625)"/>
       <path id="DejaVuSans-68" d="M 3513 2113 
L 3513 0 
L 2938 0 
L 2938 2094 
Q 2938 2591 2744 2837 
Q 2550 3084 2163 3084 
Q 1697 3084 1428 2787 
Q 1159 2491 1159 1978 
L 1159 0 
L 581 0 
L 581 4863 
L 1159 4863 
L 1159 2956 
Q 1366 3272 1645 3428 
Q 1925 3584 2291 3584 
Q 2894 3584 3203 3211 
Q 3513 2838 3513 2113 
z
" transform="scale(0.015625)"/>
       <path id="DejaVuSans-70" d="M 1159 525 
L 1159 -1331 
L 581 -1331 
L 581 3500 
L 1159 3500 
L 1159 2969 
Q 1341 3281 1617 3432 
Q 1894 3584 2278 3584 
Q 2916 3584 3314 3078 
Q 3713 2572 3713 1747 
Q 3713 922 3314 415 
Q 2916 -91 2278 -91 
Q 1894 -91 1617 61 
Q 1341 213 1159 525 
z
M 3116 1747 
Q 3116 2381 2855 2742 
Q 2594 3103 2138 3103 
Q 1681 3103 1420 2742 
Q 1159 2381 1159 1747 
Q 1159 1113 1420 752 
Q 1681 391 2138 391 
Q 2594 391 2855 752 
Q 3116 1113 3116 1747 
z
" transform="scale(0.015625)"/>
       <path id="DejaVuSans-Oblique-70" d="M 3175 2156 
Q 3175 2616 2975 2859 
Q 2775 3103 2400 3103 
Q 2144 3103 1911 2972 
Q 1678 2841 1497 2591 
Q 1319 2344 1212 1994 
Q 1106 1644 1106 1300 
Q 1106 863 1306 627 
Q 1506 391 1875 391 
Q 2147 391 2380 519 
Q 2613 647 2778 891 
Q 2956 1147 3065 1494 
Q 3175 1841 3175 2156 
z
M 1394 2969 
Q 1625 3272 1939 3428 
Q 2253 3584 2638 3584 
Q 3175 3584 3472 3232 
Q 3769 2881 3769 2247 
Q 3769 1728 3584 1258 
Q 3400 788 3053 416 
Q 2822 169 2531 39 
Q 2241 -91 1919 -91 
Q 1547 -91 1294 64 
Q 1041 219 916 525 
L 556 -1331 
L -19 -1331 
L 922 3500 
L 1497 3500 
L 1394 2969 
z
" transform="scale(0.015625)"/>
       <path id="DejaVuSans-2212" d="M 678 2272 
L 4684 2272 
L 4684 1741 
L 678 1741 
L 678 2272 
z
" transform="scale(0.015625)"/>
      </defs>
      <use xlink:href="#DejaVuSans-54" transform="translate(0 0.015625)"/>
      <use xlink:href="#DejaVuSans-68" transform="translate(61.083984 0.015625)"/>
      <use xlink:href="#DejaVuSans-72" transform="translate(124.462891 0.015625)"/>
      <use xlink:href="#DejaVuSans-65" transform="translate(165.576172 0.015625)"/>
      <use xlink:href="#DejaVuSans-73" transform="translate(227.099609 0.015625)"/>
      <use xlink:href="#DejaVuSans-68" transform="translate(279.199219 0.015625)"/>
      <use xlink:href="#DejaVuSans-6f" transform="translate(342.578125 0.015625)"/>
      <use xlink:href="#DejaVuSans-6c" transform="translate(403.759766 0.015625)"/>
      <use xlink:href="#DejaVuSans-64" transform="translate(431.542969 0.015625)"/>
      <use xlink:href="#DejaVuSans-20" transform="translate(495.019531 0.015625)"/>
      <use xlink:href="#DejaVuSans-67" transform="translate(526.806641 0.015625)"/>
      <use xlink:href="#DejaVuSans-61" transform="translate(590.283203 0.015625)"/>
      <use xlink:href="#DejaVuSans-70" transform="translate(651.5625 0.015625)"/>
      <use xlink:href="#DejaVuSans-20" transform="translate(715.039062 0.015625)"/>
      <use xlink:href="#DejaVuSans-Oblique-70" transform="translate(746.826172 0.015625)"/>
      <use xlink:href="#DejaVuSans-72" transform="translate(810.302734 -16.390625) scale(0.7)"/>
      <use xlink:href="#DejaVuSans-65" transform="translate(839.082031 -16.390625) scale(0.7)"/>
      <use xlink:href="#DejaVuSans-70" transform="translate(882.148438 -16.390625) scale(0.7)"/>
      <use xlink:href="#DejaVuSans-2212" transform="translate(948.798828 0.015625)"/>
      <use xlink:href="#DejaVuSans-Oblique-70" transform="translate(1052.070312 0.015625)"/>
      <use xlink:href="#DejaVuSans-31" transform="translate(1115.546875 -16.390625) scale(0.7)"/>
     </g>
    </g>
   </g>
   <g id="line2d_17">
    <path d="M 57.09312 153.0144 
L 57.978063 152.798671 
L 58.863007 152.582825 
L 59.74795 152.366861 
L 60.632893 152.150779 
L 61.517837 151.934578 
L 62.40278 151.71826 
L 63.287724 151.501823 
L 64.172667 151.285268 
L 65.05761 151.068595 
L 65.942554 150.851803 
L 66.827497 150.634892 
L 67.71244 150.417863 
L 68.597384 150.200715 
L 69.482327 149.983449 
L 70.36727 149.766063 
L 71.252214 149.548558 
L 72.137157 149.330935 
L 73.0221 149.113192 
L 73.907044 148.895329 
L 74.791987 148.677348 
L 75.676931 148.459247 
L 76.561874 148.241026 
L 77.446817 148.022686 
L 78.331761 147.804227 
L 79.216704 147.585647 
L 80.101647 147.366948 
L 80.986591 147.148128 
L 81.871534 146.929189 
L 82.756477 146.710129 
L 83.641421 146.490949 
L 84.526364 146.271649 
L 85.411308 146.052229 
L 86.296251 145.832688 
L 87.181194 145.613026 
L 88.066138 145.393244 
L 88.951081 145.173341 
L 89.836024 144.953318 
L 90.720968 144.733173 
L 91.605911 144.512908 
L 92.490854 144.292521 
L 93.375798 144.072013 
L 94.260741 143.851384 
L 95.145684 143.630633 
L 96.030628 143.409762 
L 96.915571 143.188768 
L 97.800515 142.967653 
L 98.685458 142.746416 
L 99.570401 142.525058 
L 100.455345 142.303578 
L 101.340288 142.081975 
L 102.225231 141.860251 
L 103.110175 141.638404 
L 103.995118 141.416436 
L 104.880061 141.194345 
L 105.765005 140.972131 
L 106.649948 140.749795 
L 107.534892 140.527337 
L 108.419835 140.304755 
L 109.304778 140.082051 
L 110.189722 139.859225 
L 111.074665 139.636275 
L 111.959608 139.413202 
L 112.844552 139.190006 
L 113.729495 138.966687 
L 114.614438 138.743245 
L 115.499382 138.519679 
L 116.384325 138.29599 
L 117.269268 138.072177 
L 118.154212 137.84824 
L 119.039155 137.62418 
L 119.924099 137.399996 
L 120.809042 137.175688 
L 121.693985 136.951256 
L 122.578929 136.7267 
L 123.463872 136.50202 
L 124.348815 136.277215 
L 125.233759 136.052286 
L 126.118702 135.827233 
L 127.003645 135.602055 
L 127.888589 135.376752 
L 128.773532 135.151325 
L 129.658476 134.925773 
L 130.543419 134.700095 
L 131.428362 134.474293 
L 132.313306 134.248366 
L 133.198249 134.022314 
L 134.083192 133.796136 
L 134.968136 133.569833 
L 135.853079 133.343404 
L 136.738022 133.11685 
L 137.622966 132.89017 
L 138.507909 132.663365 
L 139.392852 132.436434 
L 140.277796 132.209376 
L 141.162739 131.982193 
L 142.047683 131.754884 
L 142.932626 131.527448 
L 143.817569 131.299886 
L 144.702513 131.072198 
L 145.587456 130.844383 
L 146.472399 130.616442 
L 147.357343 130.388374 
L 148.242286 130.160179 
L 149.127229 129.931857 
L 150.012173 129.703409 
L 150.897116 129.474833 
L 151.78206 129.246131 
L 152.667003 129.017301 
L 153.551946 128.788343 
L 154.43689 128.559259 
L 155.321833 128.330047 
L 156.206776 128.100707 
L 157.09172 127.871239 
L 157.976663 127.641644 
L 158.861606 127.411921 
L 159.74655 127.18207 
L 160.631493 126.952091 
L 161.516436 126.721984 
L 162.40138 126.491748 
L 163.286323 126.261384 
L 164.171267 126.030892 
L 165.05621 125.800271 
L 165.941153 125.569522 
L 166.826097 125.338643 
L 167.71104 125.107636 
L 168.595983 124.8765 
L 169.480927 124.645235 
L 170.36587 124.413841 
L 171.250813 124.182318 
L 172.135757 123.950666 
L 173.0207 123.718884 
L 173.905644 123.486972 
L 174.790587 123.254931 
L 175.67553 123.022761 
L 176.560474 122.79046 
L 177.445417 122.55803 
L 178.33036 122.32547 
L 179.215304 122.092779 
L 180.100247 121.859959 
L 180.98519 121.627008 
L 181.870134 121.393927 
L 182.755077 121.160716 
L 183.64002 120.927374 
L 184.524964 120.693901 
L 185.409907 120.460298 
L 186.294851 120.226563 
L 187.179794 119.992698 
L 188.064737 119.758702 
L 188.949681 119.524575 
L 189.834624 119.290316 
L 190.719567 119.055927 
L 191.604511 118.821406 
L 192.489454 118.586753 
L 193.374397 118.351969 
L 194.259341 118.117053 
L 195.144284 117.882005 
L 196.029228 117.646825 
L 196.914171 117.411514 
L 197.799114 117.17607 
L 198.684058 116.940494 
L 199.569001 116.704786 
L 200.453944 116.468945 
L 201.338888 116.232972 
L 202.223831 115.996866 
L 203.108774 115.760628 
L 203.993718 115.524257 
L 204.878661 115.287753 
L 205.763604 115.051116 
L 206.648548 114.814346 
L 207.533491 114.577443 
L 208.418435 114.340407 
L 209.303378 114.103237 
L 210.188321 113.865934 
L 211.073265 113.628497 
L 211.958208 113.390927 
L 212.843151 113.153222 
L 213.728095 112.915384 
L 214.613038 112.677412 
L 215.497981 112.439306 
L 216.382925 112.201066 
L 217.267868 111.962692 
L 218.152812 111.724183 
L 219.037755 111.485539 
L 219.922698 111.246762 
L 220.807642 111.007849 
L 221.692585 110.768802 
L 222.577528 110.52962 
L 223.462472 110.290303 
L 224.347415 110.05085 
L 225.232358 109.811263 
L 226.117302 109.571541 
L 227.002245 109.331683 
L 227.887188 109.091689 
L 228.772132 108.85156 
L 229.657075 108.611296 
L 230.542019 108.370896 
L 231.426962 108.130359 
L 232.311905 107.889687 
L 233.196849 107.648879 
L 234.081792 107.407935 
L 234.966735 107.166854 
L 235.851679 106.925637 
L 236.736622 106.684283 
L 237.621565 106.442793 
L 238.506509 106.201167 
L 239.391452 105.959403 
L 240.276396 105.717503 
L 241.161339 105.475465 
L 242.046282 105.233291 
L 242.931226 104.990979 
L 243.816169 104.74853 
L 244.701112 104.505944 
L 245.586056 104.26322 
L 246.470999 104.020359 
L 247.355942 103.777359 
L 248.240886 103.534222 
L 249.125829 103.290948 
L 250.010772 103.047535 
L 250.895716 102.803984 
L 251.780659 102.560295 
L 252.665603 102.316467 
L 253.550546 102.072501 
L 254.435489 101.828397 
L 255.320433 101.584154 
L 256.205376 101.339772 
L 257.090319 101.095251 
L 257.975263 100.850592 
L 258.860206 100.605793 
L 259.745149 100.360855 
L 260.630093 100.115778 
L 261.515036 99.870562 
L 262.39998 99.625206 
L 263.284923 99.379711 
L 264.169866 99.134076 
L 265.05481 98.888301 
L 265.939753 98.642386 
L 266.824696 98.396331 
L 267.70964 98.150136 
L 268.594583 97.903801 
L 269.479526 97.657326 
L 270.36447 97.41071 
L 271.249413 97.163954 
L 272.134356 96.917057 
L 273.0193 96.67002 
L 273.904243 96.422841 
L 274.789187 96.175522 
L 275.67413 95.928062 
L 276.559073 95.68046 
L 277.444017 95.432717 
L 278.32896 95.184833 
L 279.213903 94.936807 
L 280.098847 94.68864 
L 280.98379 94.440331 
L 281.868733 94.191881 
L 282.753677 93.943288 
L 283.63862 93.694554 
L 284.523564 93.445677 
L 285.408507 93.196658 
L 286.29345 92.947497 
L 287.178394 92.698193 
L 288.063337 92.448747 
L 288.94828 92.199158 
L 289.833224 91.949427 
L 290.718167 91.699552 
L 291.60311 91.449535 
L 292.488054 91.199374 
L 293.372997 90.949071 
L 294.25794 90.698624 
L 295.142884 90.448033 
L 296.027827 90.1973 
L 296.912771 89.946422 
L 297.797714 89.695401 
L 298.682657 89.444236 
L 299.567601 89.192927 
L 300.452544 88.941474 
L 301.337487 88.689877 
L 302.222431 88.438135 
L 303.107374 88.186249 
L 303.992317 87.934219 
L 304.877261 87.682044 
L 305.762204 87.429725 
L 306.647148 87.17726 
L 307.532091 86.924651 
L 308.417034 86.671896 
L 309.301978 86.418997 
L 310.186921 86.165952 
L 311.071864 85.912762 
L 311.956808 85.659426 
L 312.841751 85.405945 
L 313.726694 85.152318 
L 314.611638 84.898545 
L 315.496581 84.644627 
L 316.381524 84.390562 
L 317.266468 84.136351 
L 318.151411 83.881994 
L 319.036355 83.627491 
L 319.921298 83.372841 
L 320.806241 83.118044 
L 321.691185 82.863101 
L 322.576128 82.608011 
L 323.461071 82.352774 
L 324.346015 82.09739 
L 325.230958 81.841859 
L 326.115901 81.586181 
L 327.000845 81.330355 
L 327.885788 81.074382 
L 328.770732 80.818261 
L 329.655675 80.561993 
L 330.540618 80.305577 
L 331.425562 80.049013 
L 332.310505 79.7923 
L 333.195448 79.53544 
L 334.080392 79.278431 
L 334.965335 79.021274 
L 335.850278 78.763969 
L 336.735222 78.506514 
L 337.620165 78.248912 
L 338.505108 77.99116 
L 339.390052 77.733259 
L 340.274995 77.47521 
L 341.159939 77.217011 
L 342.044882 76.958663 
L 342.929825 76.700165 
L 343.814769 76.441518 
L 344.699712 76.182721 
L 345.584655 75.923775 
L 346.469599 75.664679 
L 347.354542 75.405432 
L 348.239485 75.146036 
L 349.124429 74.886489 
L 350.009372 74.626793 
L 350.894316 74.366945 
L 351.779259 74.106947 
L 352.664202 73.846799 
L 353.549146 73.5865 
L 354.434089 73.326049 
L 355.319032 73.065448 
L 356.203976 72.804696 
L 357.088919 72.543792 
L 357.973862 72.282737 
L 358.858806 72.021531 
L 359.743749 71.760173 
L 360.628692 71.498663 
L 361.513636 71.237002 
L 362.398579 70.975189 
L 363.283523 70.713223 
L 364.168466 70.451106 
L 365.053409 70.188836 
L 365.938353 69.926413 
L 366.823296 69.663838 
L 367.708239 69.401111 
L 368.593183 69.138231 
L 369.478126 68.875198 
L 370.363069 68.612012 
L 371.248013 68.348672 
L 372.132956 68.08518 
L 373.0179 67.821534 
L 373.902843 67.557735 
L 374.787786 67.293782 
L 375.67273 67.029676 
L 376.557673 66.765415 
L 377.442616 66.501001 
L 378.32756 66.236433 
L 379.212503 65.97171 
L 380.097446 65.706834 
L 380.98239 65.441803 
L 381.867333 65.176617 
L 382.752276 64.911277 
L 383.63722 64.645781 
L 384.522163 64.380132 
L 385.407107 64.114327 
L 386.29205 63.848366 
L 387.176993 63.582251 
L 388.061937 63.31598 
L 388.94688 63.049554 
L 389.831823 62.782973 
L 390.716767 62.516235 
L 391.60171 62.249342 
L 392.486653 61.982292 
L 393.371597 61.715087 
L 394.25654 61.447726 
L 395.141484 61.180208 
L 396.026427 60.912533 
L 396.91137 60.644702 
L 397.796314 60.376715 
L 398.681257 60.108571 
L 399.5662 59.840269 
L 400.451144 59.571811 
L 401.336087 59.303195 
L 402.22103 59.034423 
L 403.105974 58.765492 
L 403.990917 58.496405 
L 404.87586 58.227159 
L 405.760804 57.957756 
L 406.645747 57.688195 
L 407.530691 57.418476 
L 408.415634 57.148598 
L 409.300577 56.878563 
L 410.185521 56.608369 
L 411.070464 56.338017 
L 411.955407 56.067505 
L 412.840351 55.796836 
L 413.725294 55.526007 
L 414.610237 55.255019 
L 415.495181 54.983872 
L 416.380124 54.712566 
L 417.265068 54.441101 
L 418.150011 54.169476 
L 419.034954 53.897691 
L 419.919898 53.625747 
L 420.804841 53.353643 
L 421.689784 53.081378 
L 422.574728 52.808954 
L 423.459671 52.53637 
L 424.344614 52.263625 
L 425.229558 51.990719 
L 426.114501 51.717653 
L 426.999444 51.444426 
L 427.884388 51.171039 
L 428.769331 50.89749 
L 429.654275 50.62378 
L 430.539218 50.349909 
L 431.424161 50.075877 
L 432.309105 49.801683 
L 433.194048 49.527327 
L 434.078991 49.25281 
L 434.963935 48.978131 
L 435.848878 48.70329 
L 436.733821 48.428286 
L 437.618765 48.153121 
L 438.503708 47.877793 
L 439.388652 47.602303 
L 440.273595 47.32665 
L 441.158538 47.050834 
L 442.043482 46.774855 
L 442.928425 46.498714 
L 443.813368 46.222409 
L 444.698312 45.945941 
L 445.583255 45.669309 
L 446.468198 45.392514 
L 447.353142 45.115555 
L 448.238085 44.838433 
L 449.123028 44.561147 
L 450.007972 44.283696 
L 450.892915 44.006082 
L 451.777859 43.728303 
L 452.662802 43.45036 
L 453.547745 43.172252 
L 454.432689 42.893979 
L 455.317632 42.615542 
L 456.202575 42.33694 
L 457.087519 42.058173 
L 457.972462 41.77924 
L 458.857405 41.500142 
L 459.742349 41.220879 
L 460.627292 40.94145 
L 461.512236 40.661856 
L 462.397179 40.382095 
L 463.282122 40.102169 
L 464.167066 39.822076 
L 465.052009 39.541818 
L 465.936952 39.261393 
L 466.821896 38.980801 
L 467.706839 38.700043 
L 468.591782 38.419118 
L 469.476726 38.138026 
L 470.361669 37.856767 
L 471.246612 37.575341 
L 472.131556 37.293748 
L 473.016499 37.011987 
L 473.901443 36.730059 
L 474.786386 36.447963 
L 475.671329 36.1657 
L 476.556273 35.883268 
L 477.441216 35.600668 
L 478.326159 35.3179 
L 479.211103 35.034964 
L 480.096046 34.751859 
L 480.980989 34.468586 
L 481.865933 34.185144 
L 482.750876 33.901533 
L 483.63582 33.617753 
L 484.520763 33.333804 
L 485.405706 33.049686 
L 486.29065 32.765398 
L 487.175593 32.480941 
L 488.060536 32.196314 
L 488.94548 31.911517 
L 489.830423 31.626551 
L 490.715366 31.341414 
L 491.60031 31.056107 
L 492.485253 30.77063 
L 493.370196 30.484982 
L 494.25514 30.199164 
L 495.140083 29.913175 
L 496.025027 29.627015 
L 496.90997 29.340684 
L 497.794913 29.054182 
L 498.679857 28.767509 
L 499.5648 28.480664 
" clip-path="url(#ped76e206cb)" style="fill: none; stroke: #1b4264; stroke-width: 1.5; stroke-linecap: square"/>
   </g>
   <g id="line2d_18">
    <path d="M 57.09312 153.0144 
L 57.978063 152.79873 
L 58.863007 152.583061 
L 59.74795 152.367391 
L 60.632893 152.151721 
L 61.517837 151.936052 
L 62.40278 151.720382 
L 63.287724 151.504712 
L 64.172667 151.289043 
L 65.05761 151.073373 
L 65.942554 150.857704 
L 66.827497 150.642034 
L 67.71244 150.426364 
L 68.597384 150.210695 
L 69.482327 149.995025 
L 70.36727 149.779355 
L 71.252214 149.563686 
L 72.137157 149.348016 
L 73.0221 149.132346 
L 73.907044 148.916677 
L 74.791987 148.701007 
L 75.676931 148.485337 
L 76.561874 148.269668 
L 77.446817 148.053998 
L 78.331761 147.838328 
L 79.216704 147.622659 
L 80.101647 147.406989 
L 80.986591 147.19132 
L 81.871534 146.97565 
L 82.756477 146.75998 
L 83.641421 146.544311 
L 84.526364 146.328641 
L 85.411308 146.112971 
L 86.296251 145.897302 
L 87.181194 145.681632 
L 88.066138 145.465962 
L 88.951081 145.250293 
L 89.836024 145.034623 
L 90.720968 144.818953 
L 91.605911 144.603284 
L 92.490854 144.387614 
L 93.375798 144.171944 
L 94.260741 143.956275 
L 95.145684 143.740605 
L 96.030628 143.524936 
L 96.915571 143.309266 
L 97.800515 143.093596 
L 98.685458 142.877927 
L 99.570401 142.662257 
L 100.455345 142.446587 
L 101.340288 142.230918 
L 102.225231 142.015248 
L 103.110175 141.799578 
L 103.995118 141.583909 
L 104.880061 141.368239 
L 105.765005 141.152569 
L 106.649948 140.9369 
L 107.534892 140.72123 
L 108.419835 140.50556 
L 109.304778 140.289891 
L 110.189722 140.074221 
L 111.074665 139.858552 
L 111.959608 139.642882 
L 112.844552 139.427212 
L 113.729495 139.211543 
L 114.614438 138.995873 
L 115.499382 138.780203 
L 116.384325 138.564534 
L 117.269268 138.348864 
L 118.154212 138.133194 
L 119.039155 137.917525 
L 119.924099 137.701855 
L 120.809042 137.486185 
L 121.693985 137.270516 
L 122.578929 137.054846 
L 123.463872 136.839176 
L 124.348815 136.623507 
L 125.233759 136.407837 
L 126.118702 136.192168 
L 127.003645 135.976498 
L 127.888589 135.760828 
L 128.773532 135.545159 
L 129.658476 135.329489 
L 130.543419 135.113819 
L 131.428362 134.89815 
L 132.313306 134.68248 
L 133.198249 134.46681 
L 134.083192 134.251141 
L 134.968136 134.035471 
L 135.853079 133.819801 
L 136.738022 133.604132 
L 137.622966 133.388462 
L 138.507909 133.172792 
L 139.392852 132.957123 
L 140.277796 132.741453 
L 141.162739 132.525784 
L 142.047683 132.310114 
L 142.932626 132.094444 
L 143.817569 131.878775 
L 144.702513 131.663105 
L 145.587456 131.447435 
L 146.472399 131.231766 
L 147.357343 131.016096 
L 148.242286 130.800426 
L 149.127229 130.584757 
L 150.012173 130.369087 
L 150.897116 130.153417 
L 151.78206 129.937748 
L 152.667003 129.722078 
L 153.551946 129.506408 
L 154.43689 129.290739 
L 155.321833 129.075069 
L 156.206776 128.8594 
L 157.09172 128.64373 
L 157.976663 128.42806 
L 158.861606 128.212391 
L 159.74655 127.996721 
L 160.631493 127.781051 
L 161.516436 127.565382 
L 162.40138 127.349712 
L 163.286323 127.134042 
L 164.171267 126.918373 
L 165.05621 126.702703 
L 165.941153 126.487033 
L 166.826097 126.271364 
L 167.71104 126.055694 
L 168.595983 125.840024 
L 169.480927 125.624355 
L 170.36587 125.408685 
L 171.250813 125.193016 
L 172.135757 124.977346 
L 173.0207 124.761676 
L 173.905644 124.546007 
L 174.790587 124.330337 
L 175.67553 124.114667 
L 176.560474 123.898998 
L 177.445417 123.683328 
L 178.33036 123.467658 
L 179.215304 123.251989 
L 180.100247 123.036319 
L 180.98519 122.820649 
L 181.870134 122.60498 
L 182.755077 122.38931 
L 183.64002 122.17364 
L 184.524964 121.957971 
L 185.409907 121.742301 
L 186.294851 121.526632 
L 187.179794 121.310962 
L 188.064737 121.095292 
L 188.949681 120.879623 
L 189.834624 120.663953 
L 190.719567 120.448283 
L 191.604511 120.232614 
L 192.489454 120.016944 
L 193.374397 119.801274 
L 194.259341 119.585605 
L 195.144284 119.369935 
L 196.029228 119.154265 
L 196.914171 118.938596 
L 197.799114 118.722926 
L 198.684058 118.507256 
L 199.569001 118.291587 
L 200.453944 118.075917 
L 201.338888 117.860248 
L 202.223831 117.644578 
L 203.108774 117.428908 
L 203.993718 117.213239 
L 204.878661 116.997569 
L 205.763604 116.781899 
L 206.648548 116.56623 
L 207.533491 116.35056 
L 208.418435 116.13489 
L 209.303378 115.919221 
L 210.188321 115.703551 
L 211.073265 115.487881 
L 211.958208 115.272212 
L 212.843151 115.056542 
L 213.728095 114.840872 
L 214.613038 114.625203 
L 215.497981 114.409533 
L 216.382925 114.193864 
L 217.267868 113.978194 
L 218.152812 113.762524 
L 219.037755 113.546855 
L 219.922698 113.331185 
L 220.807642 113.115515 
L 221.692585 112.899846 
L 222.577528 112.684176 
L 223.462472 112.468506 
L 224.347415 112.252837 
L 225.232358 112.037167 
L 226.117302 111.821497 
L 227.002245 111.605828 
L 227.887188 111.390158 
L 228.772132 111.174488 
L 229.657075 110.958819 
L 230.542019 110.743149 
L 231.426962 110.52748 
L 232.311905 110.31181 
L 233.196849 110.09614 
L 234.081792 109.880471 
L 234.966735 109.664801 
L 235.851679 109.449131 
L 236.736622 109.233462 
L 237.621565 109.017792 
L 238.506509 108.802122 
L 239.391452 108.586453 
L 240.276396 108.370783 
L 241.161339 108.155113 
L 242.046282 107.939444 
L 242.931226 107.723774 
L 243.816169 107.508104 
L 244.701112 107.292435 
L 245.586056 107.076765 
L 246.470999 106.861096 
L 247.355942 106.645426 
L 248.240886 106.429756 
L 249.125829 106.214087 
L 250.010772 105.998417 
L 250.895716 105.782747 
L 251.780659 105.567078 
L 252.665603 105.351408 
L 253.550546 105.135738 
L 254.435489 104.920069 
L 255.320433 104.704399 
L 256.205376 104.488729 
L 257.090319 104.27306 
L 257.975263 104.05739 
L 258.860206 103.84172 
L 259.745149 103.626051 
L 260.630093 103.410381 
L 261.515036 103.194712 
L 262.39998 102.979042 
L 263.284923 102.763372 
L 264.169866 102.547703 
L 265.05481 102.332033 
L 265.939753 102.116363 
L 266.824696 101.900694 
L 267.70964 101.685024 
L 268.594583 101.469354 
L 269.479526 101.253685 
L 270.36447 101.038015 
L 271.249413 100.822345 
L 272.134356 100.606676 
L 273.0193 100.391006 
L 273.904243 100.175336 
L 274.789187 99.959667 
L 275.67413 99.743997 
L 276.559073 99.528328 
L 277.444017 99.312658 
L 278.32896 99.096988 
L 279.213903 98.881319 
L 280.098847 98.665649 
L 280.98379 98.449979 
L 281.868733 98.23431 
L 282.753677 98.01864 
L 283.63862 97.80297 
L 284.523564 97.587301 
L 285.408507 97.371631 
L 286.29345 97.155961 
L 287.178394 96.940292 
L 288.063337 96.724622 
L 288.94828 96.508952 
L 289.833224 96.293283 
L 290.718167 96.077613 
L 291.60311 95.861944 
L 292.488054 95.646274 
L 293.372997 95.430604 
L 294.25794 95.214935 
L 295.142884 94.999265 
L 296.027827 94.783595 
L 296.912771 94.567926 
L 297.797714 94.352256 
L 298.682657 94.136586 
L 299.567601 93.920917 
L 300.452544 93.705247 
L 301.337487 93.489577 
L 302.222431 93.273908 
L 303.107374 93.058238 
L 303.992317 92.842568 
L 304.877261 92.626899 
L 305.762204 92.411229 
L 306.647148 92.19556 
L 307.532091 91.97989 
L 308.417034 91.76422 
L 309.301978 91.548551 
L 310.186921 91.332881 
L 311.071864 91.117211 
L 311.956808 90.901542 
L 312.841751 90.685872 
L 313.726694 90.470202 
L 314.611638 90.254533 
L 315.496581 90.038863 
L 316.381524 89.823193 
L 317.266468 89.607524 
L 318.151411 89.391854 
L 319.036355 89.176184 
L 319.921298 88.960515 
L 320.806241 88.744845 
L 321.691185 88.529176 
L 322.576128 88.313506 
L 323.461071 88.097836 
L 324.346015 87.882167 
L 325.230958 87.666497 
L 326.115901 87.450827 
L 327.000845 87.235158 
L 327.885788 87.019488 
L 328.770732 86.803818 
L 329.655675 86.588149 
L 330.540618 86.372479 
L 331.425562 86.156809 
L 332.310505 85.94114 
L 333.195448 85.72547 
L 334.080392 85.5098 
L 334.965335 85.294131 
L 335.850278 85.078461 
L 336.735222 84.862792 
L 337.620165 84.647122 
L 338.505108 84.431452 
L 339.390052 84.215783 
L 340.274995 84.000113 
L 341.159939 83.784443 
L 342.044882 83.568774 
L 342.929825 83.353104 
L 343.814769 83.137434 
L 344.699712 82.921765 
L 345.584655 82.706095 
L 346.469599 82.490425 
L 347.354542 82.274756 
L 348.239485 82.059086 
L 349.124429 81.843416 
L 350.009372 81.627747 
L 350.894316 81.412077 
L 351.779259 81.196408 
L 352.664202 80.980738 
L 353.549146 80.765068 
L 354.434089 80.549399 
L 355.319032 80.333729 
L 356.203976 80.118059 
L 357.088919 79.90239 
L 357.973862 79.68672 
L 358.858806 79.47105 
L 359.743749 79.255381 
L 360.628692 79.039711 
L 361.513636 78.824041 
L 362.398579 78.608372 
L 363.283523 78.392702 
L 364.168466 78.177032 
L 365.053409 77.961363 
L 365.938353 77.745693 
L 366.823296 77.530024 
L 367.708239 77.314354 
L 368.593183 77.098684 
L 369.478126 76.883015 
L 370.363069 76.667345 
L 371.248013 76.451675 
L 372.132956 76.236006 
L 373.0179 76.020336 
L 373.902843 75.804666 
L 374.787786 75.588997 
L 375.67273 75.373327 
L 376.557673 75.157657 
L 377.442616 74.941988 
L 378.32756 74.726318 
L 379.212503 74.510648 
L 380.097446 74.294979 
L 380.98239 74.079309 
L 381.867333 73.86364 
L 382.752276 73.64797 
L 383.63722 73.4323 
L 384.522163 73.216631 
L 385.407107 73.000961 
L 386.29205 72.785291 
L 387.176993 72.569622 
L 388.061937 72.353952 
L 388.94688 72.138282 
L 389.831823 71.922613 
L 390.716767 71.706943 
L 391.60171 71.491273 
L 392.486653 71.275604 
L 393.371597 71.059934 
L 394.25654 70.844264 
L 395.141484 70.628595 
L 396.026427 70.412925 
L 396.91137 70.197256 
L 397.796314 69.981586 
L 398.681257 69.765916 
L 399.5662 69.550247 
L 400.451144 69.334577 
L 401.336087 69.118907 
L 402.22103 68.903238 
L 403.105974 68.687568 
L 403.990917 68.471898 
L 404.87586 68.256229 
L 405.760804 68.040559 
L 406.645747 67.824889 
L 407.530691 67.60922 
L 408.415634 67.39355 
L 409.300577 67.17788 
L 410.185521 66.962211 
L 411.070464 66.746541 
L 411.955407 66.530872 
L 412.840351 66.315202 
L 413.725294 66.099532 
L 414.610237 65.883863 
L 415.495181 65.668193 
L 416.380124 65.452523 
L 417.265068 65.236854 
L 418.150011 65.021184 
L 419.034954 64.805514 
L 419.919898 64.589845 
L 420.804841 64.374175 
L 421.689784 64.158505 
L 422.574728 63.942836 
L 423.459671 63.727166 
L 424.344614 63.511496 
L 425.229558 63.295827 
L 426.114501 63.080157 
L 426.999444 62.864488 
L 427.884388 62.648818 
L 428.769331 62.433148 
L 429.654275 62.217479 
L 430.539218 62.001809 
L 431.424161 61.786139 
L 432.309105 61.57047 
L 433.194048 61.3548 
L 434.078991 61.13913 
L 434.963935 60.923461 
L 435.848878 60.707791 
L 436.733821 60.492121 
L 437.618765 60.276452 
L 438.503708 60.060782 
L 439.388652 59.845112 
L 440.273595 59.629443 
L 441.158538 59.413773 
L 442.043482 59.198104 
L 442.928425 58.982434 
L 443.813368 58.766764 
L 444.698312 58.551095 
L 445.583255 58.335425 
L 446.468198 58.119755 
L 447.353142 57.904086 
L 448.238085 57.688416 
L 449.123028 57.472746 
L 450.007972 57.257077 
L 450.892915 57.041407 
L 451.777859 56.825737 
L 452.662802 56.610068 
L 453.547745 56.394398 
L 454.432689 56.178728 
L 455.317632 55.963059 
L 456.202575 55.747389 
L 457.087519 55.53172 
L 457.972462 55.31605 
L 458.857405 55.10038 
L 459.742349 54.884711 
L 460.627292 54.669041 
L 461.512236 54.453371 
L 462.397179 54.237702 
L 463.282122 54.022032 
L 464.167066 53.806362 
L 465.052009 53.590693 
L 465.936952 53.375023 
L 466.821896 53.159353 
L 467.706839 52.943684 
L 468.591782 52.728014 
L 469.476726 52.512344 
L 470.361669 52.296675 
L 471.246612 52.081005 
L 472.131556 51.865336 
L 473.016499 51.649666 
L 473.901443 51.433996 
L 474.786386 51.218327 
L 475.671329 51.002657 
L 476.556273 50.786987 
L 477.441216 50.571318 
L 478.326159 50.355648 
L 479.211103 50.139978 
L 480.096046 49.924309 
L 480.980989 49.708639 
L 481.865933 49.492969 
L 482.750876 49.2773 
L 483.63582 49.06163 
L 484.520763 48.84596 
L 485.405706 48.630291 
L 486.29065 48.414621 
L 487.175593 48.198952 
L 488.060536 47.983282 
L 488.94548 47.767612 
L 489.830423 47.551943 
L 490.715366 47.336273 
L 491.60031 47.120603 
L 492.485253 46.904934 
L 493.370196 46.689264 
L 494.25514 46.473594 
L 495.140083 46.257925 
L 496.025027 46.042255 
L 496.90997 45.826585 
L 497.794913 45.610916 
L 498.679857 45.395246 
L 499.5648 45.179576 
" clip-path="url(#ped76e206cb)" style="fill: none; stroke-dasharray: 5.4,3; stroke-dashoffset: 0; stroke: #177d89; stroke-width: 1.2"/>
   </g>
   <g id="patch_3">
    <path d="M 57.09312 153.0144 
L 57.09312 14.50656 
" style="fill: none; stroke: #66727c; stroke-width: 0.65; stroke-linejoin: miter; stroke-linecap: square"/>
   </g>
   <g id="patch_4">
    <path d="M 57.09312 153.0144 
L 499.5648 153.0144 
" style="fill: none; stroke: #66727c; stroke-width: 0.65; stroke-linejoin: miter; stroke-linecap: square"/>
   </g>
   <g id="text_14">
    <!-- $\epsilon=0.10$; equal cone weights -->
    <g style="fill: #25313b" transform="translate(67.71244 24.894648) scale(0.096 -0.096)">
     <defs>
      <path id="DejaVuSans-Oblique-3b5" d="M 1263 1888 
Q 925 1963 778 2166 
Q 669 2309 669 2503 
Q 669 3034 1175 3344 
Q 1575 3588 2188 3588 
Q 2425 3588 2684 3550 
Q 2944 3513 3234 3438 
L 3134 2916 
Q 2847 3006 2606 3047 
Q 2359 3088 2138 3088 
Q 1766 3088 1522 2944 
Q 1228 2772 1228 2522 
Q 1228 2356 1381 2241 
Q 1563 2103 1925 2103 
L 2409 2103 
L 2319 1628 
L 1856 1628 
Q 1425 1628 1172 1469 
Q 828 1253 828 916 
Q 828 703 1013 563 
Q 1244 388 1716 388 
Q 2006 388 2284 444 
Q 2563 503 2806 619 
L 2700 84 
Q 2403 -3 2131 -47 
Q 1859 -91 1609 -91 
Q 866 -91 516 194 
Q 250 413 250 781 
Q 250 1278 600 1584 
Q 859 1813 1263 1888 
z
" transform="scale(0.015625)"/>
      <path id="DejaVuSans-3b" d="M 750 3309 
L 1409 3309 
L 1409 2516 
L 750 2516 
L 750 3309 
z
M 750 794 
L 1409 794 
L 1409 256 
L 897 -744 
L 494 -744 
L 750 256 
L 750 794 
z
" transform="scale(0.015625)"/>
      <path id="DejaVuSans-71" d="M 947 1747 
Q 947 1113 1208 752 
Q 1469 391 1925 391 
Q 2381 391 2643 752 
Q 2906 1113 2906 1747 
Q 2906 2381 2643 2742 
Q 2381 3103 1925 3103 
Q 1469 3103 1208 2742 
Q 947 2381 947 1747 
z
M 2906 525 
Q 2725 213 2448 61 
Q 2172 -91 1784 -91 
Q 1150 -91 751 415 
Q 353 922 353 1747 
Q 353 2572 751 3078 
Q 1150 3584 1784 3584 
Q 2172 3584 2448 3432 
Q 2725 3281 2906 2969 
L 2906 3500 
L 3481 3500 
L 3481 -1331 
L 2906 -1331 
L 2906 525 
z
" transform="scale(0.015625)"/>
      <path id="DejaVuSans-75" d="M 544 1381 
L 544 3500 
L 1119 3500 
L 1119 1403 
Q 1119 906 1312 657 
Q 1506 409 1894 409 
Q 2359 409 2629 706 
Q 2900 1003 2900 1516 
L 2900 3500 
L 3475 3500 
L 3475 0 
L 2900 0 
L 2900 538 
Q 2691 219 2414 64 
Q 2138 -91 1772 -91 
Q 1169 -91 856 284 
Q 544 659 544 1381 
z
M 1991 3584 
L 1991 3584 
z
" transform="scale(0.015625)"/>
      <path id="DejaVuSans-77" d="M 269 3500 
L 844 3500 
L 1563 769 
L 2278 3500 
L 2956 3500 
L 3675 769 
L 4391 3500 
L 4966 3500 
L 4050 0 
L 3372 0 
L 2619 2869 
L 1863 0 
L 1184 0 
L 269 3500 
z
" transform="scale(0.015625)"/>
     </defs>
     <use xlink:href="#DejaVuSans-Oblique-3b5" transform="translate(0 0.015625)"/>
     <use xlink:href="#DejaVuSans-3d" transform="translate(73.535156 0.015625)"/>
     <use xlink:href="#DejaVuSans-30" transform="translate(176.806641 0.015625)"/>
     <use xlink:href="#DejaVuSans-2e" transform="translate(240.429688 0.015625)"/>
     <use xlink:href="#DejaVuSans-31" transform="translate(272.216797 0.015625)"/>
     <use xlink:href="#DejaVuSans-30" transform="translate(335.839844 0.015625)"/>
     <use xlink:href="#DejaVuSans-3b" transform="translate(399.462891 0.015625)"/>
     <use xlink:href="#DejaVuSans-20" transform="translate(433.154297 0.015625)"/>
     <use xlink:href="#DejaVuSans-65" transform="translate(464.941406 0.015625)"/>
     <use xlink:href="#DejaVuSans-71" transform="translate(526.464844 0.015625)"/>
     <use xlink:href="#DejaVuSans-75" transform="translate(589.941406 0.015625)"/>
     <use xlink:href="#DejaVuSans-61" transform="translate(653.320312 0.015625)"/>
     <use xlink:href="#DejaVuSans-6c" transform="translate(714.599609 0.015625)"/>
     <use xlink:href="#DejaVuSans-20" transform="translate(742.382812 0.015625)"/>
     <use xlink:href="#DejaVuSans-63" transform="translate(774.169922 0.015625)"/>
     <use xlink:href="#DejaVuSans-6f" transform="translate(829.150391 0.015625)"/>
     <use xlink:href="#DejaVuSans-6e" transform="translate(890.332031 0.015625)"/>
     <use xlink:href="#DejaVuSans-65" transform="translate(953.710938 0.015625)"/>
     <use xlink:href="#DejaVuSans-20" transform="translate(1015.234375 0.015625)"/>
     <use xlink:href="#DejaVuSans-77" transform="translate(1047.021484 0.015625)"/>
     <use xlink:href="#DejaVuSans-65" transform="translate(1128.808594 0.015625)"/>
     <use xlink:href="#DejaVuSans-69" transform="translate(1190.332031 0.015625)"/>
     <use xlink:href="#DejaVuSans-67" transform="translate(1218.115234 0.015625)"/>
     <use xlink:href="#DejaVuSans-68" transform="translate(1281.591797 0.015625)"/>
     <use xlink:href="#DejaVuSans-74" transform="translate(1344.970703 0.015625)"/>
     <use xlink:href="#DejaVuSans-73" transform="translate(1384.179688 0.015625)"/>
    </g>
   </g>
   <g id="PathCollection_1">
    <defs>
     <path id="m9b26320746" d="M 0 2.345208 
C 0.621956 2.345208 1.218523 2.098102 1.658312 1.658312 
C 2.098102 1.218523 2.345208 0.621956 2.345208 0 
C 2.345208 -0.621956 2.098102 -1.218523 1.658312 -1.658312 
C 1.218523 -2.098102 0.621956 -2.345208 0 -2.345208 
C -0.621956 -2.345208 -1.218523 -2.098102 -1.658312 -1.658312 
C -2.098102 -1.218523 -2.345208 -0.621956 -2.345208 0 
C -2.345208 0.621956 -2.098102 1.218523 -1.658312 1.658312 
C -1.218523 2.098102 -0.621956 2.345208 0 2.345208 
z
" style="stroke: #1b4264"/>
    </defs>
    <g>
     <use xlink:href="#m9b26320746" x="57.09312" y="153.0144" style="fill: #1b4264; stroke: #1b4264"/>
    </g>
   </g>
   <g id="legend_1">
    <g id="line2d_19">
     <path d="M 70.507497 48.273612 
L 82.697497 48.273612 
L 94.887497 48.273612 
" style="fill: none; stroke: #1b4264; stroke-width: 1.5; stroke-linecap: square"/>
    </g>
    <g id="text_15">
     <!-- Exact frontier gap -->
     <g style="fill: #25313b" transform="translate(102.247497 51.493612) scale(0.092 -0.092)">
      <defs>
       <path id="DejaVuSans-45" d="M 628 4666 
L 3578 4666 
L 3578 4134 
L 1259 4134 
L 1259 2753 
L 3481 2753 
L 3481 2222 
L 1259 2222 
L 1259 531 
L 3634 531 
L 3634 0 
L 628 0 
L 628 4666 
z
" transform="scale(0.015625)"/>
       <path id="DejaVuSans-78" d="M 3513 3500 
L 2247 1797 
L 3578 0 
L 2900 0 
L 1881 1375 
L 863 0 
L 184 0 
L 1544 1831 
L 300 3500 
L 978 3500 
L 1906 2253 
L 2834 3500 
L 3513 3500 
z
" transform="scale(0.015625)"/>
       <path id="DejaVuSans-66" d="M 2375 4863 
L 2375 4384 
L 1825 4384 
Q 1516 4384 1395 4259 
Q 1275 4134 1275 3809 
L 1275 3500 
L 2222 3500 
L 2222 3053 
L 1275 3053 
L 1275 0 
L 697 0 
L 697 3053 
L 147 3053 
L 147 3500 
L 697 3500 
L 697 3744 
Q 697 4328 969 4595 
Q 1241 4863 1831 4863 
L 2375 4863 
z
" transform="scale(0.015625)"/>
      </defs>
      <use xlink:href="#DejaVuSans-45"/>
      <use xlink:href="#DejaVuSans-78" transform="translate(63.183594 0)"/>
      <use xlink:href="#DejaVuSans-61" transform="translate(122.363281 0)"/>
      <use xlink:href="#DejaVuSans-63" transform="translate(183.642578 0)"/>
      <use xlink:href="#DejaVuSans-74" transform="translate(238.623047 0)"/>
      <use xlink:href="#DejaVuSans-20" transform="translate(277.832031 0)"/>
      <use xlink:href="#DejaVuSans-66" transform="translate(309.619141 0)"/>
      <use xlink:href="#DejaVuSans-72" transform="translate(344.824219 0)"/>
      <use xlink:href="#DejaVuSans-6f" transform="translate(383.6875 0)"/>
      <use xlink:href="#DejaVuSans-6e" transform="translate(444.869141 0)"/>
      <use xlink:href="#DejaVuSans-74" transform="translate(508.248047 0)"/>
      <use xlink:href="#DejaVuSans-69" transform="translate(547.457031 0)"/>
      <use xlink:href="#DejaVuSans-65" transform="translate(575.240234 0)"/>
      <use xlink:href="#DejaVuSans-72" transform="translate(636.763672 0)"/>
      <use xlink:href="#DejaVuSans-20" transform="translate(677.876953 0)"/>
      <use xlink:href="#DejaVuSans-67" transform="translate(709.664062 0)"/>
      <use xlink:href="#DejaVuSans-61" transform="translate(773.140625 0)"/>
      <use xlink:href="#DejaVuSans-70" transform="translate(834.419922 0)"/>
     </g>
    </g>
    <g id="line2d_20">
     <path d="M 70.507497 63.802925 
L 82.697497 63.802925 
L 94.887497 63.802925 
" style="fill: none; stroke-dasharray: 5.4,3; stroke-dashoffset: 0; stroke: #177d89; stroke-width: 1.2"/>
    </g>
    <g id="text_16">
     <!-- Small-$\lambda$ asymptote: $(18/289)\lambda$ -->
     <g style="fill: #25313b" transform="translate(102.247497 67.022925) scale(0.092 -0.092)">
      <defs>
       <path id="DejaVuSans-53" d="M 3425 4513 
L 3425 3897 
Q 3066 4069 2747 4153 
Q 2428 4238 2131 4238 
Q 1616 4238 1336 4038 
Q 1056 3838 1056 3469 
Q 1056 3159 1242 3001 
Q 1428 2844 1947 2747 
L 2328 2669 
Q 3034 2534 3370 2195 
Q 3706 1856 3706 1288 
Q 3706 609 3251 259 
Q 2797 -91 1919 -91 
Q 1588 -91 1214 -16 
Q 841 59 441 206 
L 441 856 
Q 825 641 1194 531 
Q 1563 422 1919 422 
Q 2459 422 2753 634 
Q 3047 847 3047 1241 
Q 3047 1584 2836 1778 
Q 2625 1972 2144 2069 
L 1759 2144 
Q 1053 2284 737 2584 
Q 422 2884 422 3419 
Q 422 4038 858 4394 
Q 1294 4750 2059 4750 
Q 2388 4750 2728 4690 
Q 3069 4631 3425 4513 
z
" transform="scale(0.015625)"/>
       <path id="DejaVuSans-2d" d="M 313 2009 
L 1997 2009 
L 1997 1497 
L 313 1497 
L 313 2009 
z
" transform="scale(0.015625)"/>
       <path id="DejaVuSans-79" d="M 2059 -325 
Q 1816 -950 1584 -1140 
Q 1353 -1331 966 -1331 
L 506 -1331 
L 506 -850 
L 844 -850 
Q 1081 -850 1212 -737 
Q 1344 -625 1503 -206 
L 1606 56 
L 191 3500 
L 800 3500 
L 1894 763 
L 2988 3500 
L 3597 3500 
L 2059 -325 
z
" transform="scale(0.015625)"/>
       <path id="DejaVuSans-3a" d="M 750 794 
L 1409 794 
L 1409 0 
L 750 0 
L 750 794 
z
M 750 3309 
L 1409 3309 
L 1409 2516 
L 750 2516 
L 750 3309 
z
" transform="scale(0.015625)"/>
       <path id="DejaVuSans-38" d="M 2034 2216 
Q 1584 2216 1326 1975 
Q 1069 1734 1069 1313 
Q 1069 891 1326 650 
Q 1584 409 2034 409 
Q 2484 409 2743 651 
Q 3003 894 3003 1313 
Q 3003 1734 2745 1975 
Q 2488 2216 2034 2216 
z
M 1403 2484 
Q 997 2584 770 2862 
Q 544 3141 544 3541 
Q 544 4100 942 4425 
Q 1341 4750 2034 4750 
Q 2731 4750 3128 4425 
Q 3525 4100 3525 3541 
Q 3525 3141 3298 2862 
Q 3072 2584 2669 2484 
Q 3125 2378 3379 2068 
Q 3634 1759 3634 1313 
Q 3634 634 3220 271 
Q 2806 -91 2034 -91 
Q 1263 -91 848 271 
Q 434 634 434 1313 
Q 434 1759 690 2068 
Q 947 2378 1403 2484 
z
M 1172 3481 
Q 1172 3119 1398 2916 
Q 1625 2713 2034 2713 
Q 2441 2713 2670 2916 
Q 2900 3119 2900 3481 
Q 2900 3844 2670 4047 
Q 2441 4250 2034 4250 
Q 1625 4250 1398 4047 
Q 1172 3844 1172 3481 
z
" transform="scale(0.015625)"/>
       <path id="DejaVuSans-2f" d="M 1625 4666 
L 2156 4666 
L 531 -594 
L 0 -594 
L 1625 4666 
z
" transform="scale(0.015625)"/>
       <path id="DejaVuSans-39" d="M 703 97 
L 703 672 
Q 941 559 1184 500 
Q 1428 441 1663 441 
Q 2288 441 2617 861 
Q 2947 1281 2994 2138 
Q 2813 1869 2534 1725 
Q 2256 1581 1919 1581 
Q 1219 1581 811 2004 
Q 403 2428 403 3163 
Q 403 3881 828 4315 
Q 1253 4750 1959 4750 
Q 2769 4750 3195 4129 
Q 3622 3509 3622 2328 
Q 3622 1225 3098 567 
Q 2575 -91 1691 -91 
Q 1453 -91 1209 -44 
Q 966 3 703 97 
z
M 1959 2075 
Q 2384 2075 2632 2365 
Q 2881 2656 2881 3163 
Q 2881 3666 2632 3958 
Q 2384 4250 1959 4250 
Q 1534 4250 1286 3958 
Q 1038 3666 1038 3163 
Q 1038 2656 1286 2365 
Q 1534 2075 1959 2075 
z
" transform="scale(0.015625)"/>
      </defs>
      <use xlink:href="#DejaVuSans-53" transform="translate(0 0.015625)"/>
      <use xlink:href="#DejaVuSans-6d" transform="translate(63.476562 0.015625)"/>
      <use xlink:href="#DejaVuSans-61" transform="translate(160.888672 0.015625)"/>
      <use xlink:href="#DejaVuSans-6c" transform="translate(222.167969 0.015625)"/>
      <use xlink:href="#DejaVuSans-6c" transform="translate(249.951172 0.015625)"/>
      <use xlink:href="#DejaVuSans-2d" transform="translate(277.734375 0.015625)"/>
      <use xlink:href="#DejaVuSans-Oblique-3bb" transform="translate(313.818359 0.015625)"/>
      <use xlink:href="#DejaVuSans-20" transform="translate(372.998047 0.015625)"/>
      <use xlink:href="#DejaVuSans-61" transform="translate(404.785156 0.015625)"/>
      <use xlink:href="#DejaVuSans-73" transform="translate(466.064453 0.015625)"/>
      <use xlink:href="#DejaVuSans-79" transform="translate(518.164062 0.015625)"/>
      <use xlink:href="#DejaVuSans-6d" transform="translate(577.34375 0.015625)"/>
      <use xlink:href="#DejaVuSans-70" transform="translate(674.755859 0.015625)"/>
      <use xlink:href="#DejaVuSans-74" transform="translate(738.232422 0.015625)"/>
      <use xlink:href="#DejaVuSans-6f" transform="translate(777.441406 0.015625)"/>
      <use xlink:href="#DejaVuSans-74" transform="translate(838.623047 0.015625)"/>
      <use xlink:href="#DejaVuSans-65" transform="translate(877.832031 0.015625)"/>
      <use xlink:href="#DejaVuSans-3a" transform="translate(939.355469 0.015625)"/>
      <use xlink:href="#DejaVuSans-20" transform="translate(973.046875 0.015625)"/>
      <use xlink:href="#DejaVuSans-28" transform="translate(1004.833984 0.015625)"/>
      <use xlink:href="#DejaVuSans-31" transform="translate(1043.847656 0.015625)"/>
      <use xlink:href="#DejaVuSans-38" transform="translate(1107.470703 0.015625)"/>
      <use xlink:href="#DejaVuSans-2f" transform="translate(1171.09375 0.015625)"/>
      <use xlink:href="#DejaVuSans-32" transform="translate(1201.160156 0.015625)"/>
      <use xlink:href="#DejaVuSans-38" transform="translate(1264.783203 0.015625)"/>
      <use xlink:href="#DejaVuSans-39" transform="translate(1328.40625 0.015625)"/>
      <use xlink:href="#DejaVuSans-29" transform="translate(1392.029297 0.015625)"/>
      <use xlink:href="#DejaVuSans-Oblique-3bb" transform="translate(1431.042969 0.015625)"/>
     </g>
    </g>
   </g>
  </g>
  <g id="text_17">
   <!-- (b) -->
   <g style="fill: #25313b" transform="translate(3.05856 11.381552) scale(0.11 -0.11)">
    <defs>
     <path id="DejaVuSans-Bold-28" d="M 2413 -844 
L 1484 -844 
Q 1006 -72 778 623 
Q 550 1319 550 2003 
Q 550 2688 779 3389 
Q 1009 4091 1484 4856 
L 2413 4856 
Q 2013 4116 1813 3408 
Q 1613 2700 1613 2009 
Q 1613 1319 1811 609 
Q 2009 -100 2413 -844 
z
" transform="scale(0.015625)"/>
     <path id="DejaVuSans-Bold-62" d="M 2400 722 
Q 2759 722 2948 984 
Q 3138 1247 3138 1747 
Q 3138 2247 2948 2509 
Q 2759 2772 2400 2772 
Q 2041 2772 1848 2508 
Q 1656 2244 1656 1747 
Q 1656 1250 1848 986 
Q 2041 722 2400 722 
z
M 1656 2988 
Q 1888 3294 2169 3439 
Q 2450 3584 2816 3584 
Q 3463 3584 3878 3070 
Q 4294 2556 4294 1747 
Q 4294 938 3878 423 
Q 3463 -91 2816 -91 
Q 2450 -91 2169 54 
Q 1888 200 1656 506 
L 1656 0 
L 538 0 
L 538 4863 
L 1656 4863 
L 1656 2988 
z
" transform="scale(0.015625)"/>
     <path id="DejaVuSans-Bold-29" d="M 513 -844 
Q 913 -100 1113 609 
Q 1313 1319 1313 2009 
Q 1313 2700 1113 3408 
Q 913 4116 513 4856 
L 1441 4856 
Q 1916 4091 2145 3389 
Q 2375 2688 2375 2003 
Q 2375 1319 2147 623 
Q 1919 -72 1441 -844 
L 513 -844 
z
" transform="scale(0.015625)"/>
    </defs>
    <use xlink:href="#DejaVuSans-Bold-28"/>
    <use xlink:href="#DejaVuSans-Bold-62" transform="translate(45.703125 0)"/>
    <use xlink:href="#DejaVuSans-Bold-29" transform="translate(117.285156 0)"/>
   </g>
  </g>
 </g>
 <defs>
  <clipPath id="ped76e206cb">
   <rect x="57.09312" y="14.50656" width="442.47168" height="138.50784"/>
  </clipPath>
 </defs>
</svg>
